<?xml version="1.0" standalone="no"?>
<!DOCTYPE svg PUBLIC "-//W3C//DTD SVG 20010904//EN"
 "http://www.w3.org/TR/2001/REC-SVG-20010904/DTD/svg10.dtd">
<svg version="1.0" xmlns="http://www.w3.org/2000/svg"
 width="192.000000pt" height="157.000000pt" viewBox="0 0 192.000000 157.000000"
 preserveAspectRatio="xMidYMid meet">

<g transform="translate(0.000000,157.000000) scale(0.100000,-0.100000)"
fill="#000000" stroke="none">
<path d="M873 1532 c-29 -16 -72 -52 -198 -166 l-50 -45 335 -1 c330 0 334 0
315 19 -79 77 -196 176 -227 192 -47 24 -131 25 -175 1z"/>
<path d="M541 1248 c-88 -45 -86 -33 -89 -420 -3 -325 -2 -341 18 -382 13 -27
34 -50 59 -64 38 -22 46 -22 431 -22 378 0 394 1 429 21 20 11 45 32 56 47 19
26 20 43 20 384 0 347 -1 357 -21 385 -12 15 -36 37 -55 48 -32 19 -55 20
-419 23 -384 3 -385 3 -429 -20z m840 -26 c20 -12 42 -35 48 -50 8 -20 11
-129 9 -374 -3 -330 -4 -347 -23 -368 -43 -48 -60 -50 -455 -50 -402 0 -416 2
-458 55 -22 27 -22 34 -22 371 0 238 4 351 12 368 13 30 50 56 93 67 16 4 194
7 395 6 360 -2 365 -2 401 -25z"/>
<path d="M758 1008 l-3 -183 -120 -5 -120 -5 -3 -52 -3 -52 123 -3 123 -3 5
-135 5 -135 175 0 175 0 5 135 5 135 140 5 140 5 0 50 0 50 -142 3 -143 3 0
184 0 185 -180 0 -180 0 -2 -182z m136 135 c-39 -41 -74 -122 -74 -171 0 -41
29 -114 50 -127 20 -12 9 -26 -17 -23 -56 6 -91 138 -59 222 10 25 36 62 61
85 50 46 80 56 39 14z m147 -48 c-53 -16 -87 -47 -101 -91 -18 -53 -1 -74 60
-74 27 0 52 -5 56 -11 4 -8 -11 -10 -50 -7 -62 3 -66 -1 -35 -51 11 -18 17
-36 14 -39 -11 -11 -40 14 -62 54 -17 29 -29 39 -48 39 -13 0 -25 3 -25 8 0 4
0 12 0 17 0 6 11 10 25 10 21 0 25 5 25 30 0 74 62 130 140 129 l45 0 -44 -14z
m-443 -323 c4 -27 18 -29 25 -2 7 27 33 25 42 -2 8 -22 8 -22 12 4 4 26 6 26
71 25 46 -1 71 -7 79 -17 10 -13 12 -13 17 0 5 11 21 15 59 15 52 0 52 0 52
-32 1 -35 -4 -40 -23 -21 -9 9 -12 9 -12 0 0 -18 -69 -15 -76 3 -6 14 -8 13
-20 -2 -12 -17 -13 -16 -14 9 l0 27 -26 -24 c-31 -29 -44 -31 -44 -10 0 20
-14 19 -35 -1 -10 -10 -26 -14 -41 -11 -14 2 -41 1 -59 -3 -18 -4 -39 -4 -46
1 -13 8 -5 13 16 9 5 -1 1 8 -9 19 -10 11 -15 25 -11 31 11 18 40 7 43 -18z
m417 18 c3 -5 -2 -10 -12 -10 -14 0 -15 -2 -4 -9 10 -6 10 -10 1 -16 -9 -6 -9
-9 1 -16 17 -10 5 -23 -16 -16 -9 4 -15 19 -15 42 0 28 4 35 19 35 11 0 23 -4
26 -10z m90 0 c3 -5 -2 -10 -12 -10 -15 0 -16 -2 -3 -10 13 -8 12 -11 -5 -24
-11 -9 -23 -16 -27 -16 -10 0 -10 54 -1 63 10 10 41 8 48 -3z m67 -7 c15 -14
18 -14 18 -1 0 11 14 15 60 15 33 1 60 -3 60 -8 0 -5 -8 -9 -17 -10 -12 0 -13
-2 -5 -6 10 -4 9 -9 -5 -19 -17 -13 -16 -14 12 -12 24 2 30 7 28 26 -2 14 3
22 12 22 8 0 18 0 22 0 3 0 7 -13 7 -29 1 -24 -3 -28 -29 -31 -74 -5 -145 1
-145 14 0 5 -7 3 -14 -4 -36 -29 -85 10 -56 45 16 19 29 19 52 -2z m-202 -92
c24 -45 4 -148 -38 -194 -9 -11 -30 -26 -47 -34 l-29 -16 17 24 c40 54 59 110
57 167 -1 32 -2 60 -1 65 2 15 31 6 41 -12z m88 -29 c3 -47 -21 -124 -46 -144
-13 -11 -14 -10 -8 12 4 14 10 60 13 103 5 65 8 77 22 75 11 -2 17 -16 19 -46z"/>
<path d="M1132 764 c4 -21 22 -23 26 -1 2 10 -3 17 -13 17 -10 0 -15 -6 -13
-16z"/>
<path d="M1241 754 c0 -11 3 -14 6 -6 3 7 2 16 -1 19 -3 4 -6 -2 -5 -13z"/>
<path d="M270 1014 c-58 -52 -113 -110 -122 -127 -21 -40 -23 -109 -3 -146 14
-28 232 -231 247 -231 5 0 8 135 8 300 0 234 -3 300 -12 300 -7 -1 -60 -44
-118 -96z"/>
<path d="M1520 810 c0 -165 3 -300 8 -300 4 0 21 12 37 28 17 15 65 58 107 96
43 37 87 83 98 101 25 40 26 108 2 152 -18 33 -223 223 -241 223 -8 0 -11 -96
-11 -300z"/>
<path d="M725 214 c121 -114 164 -139 236 -138 73 1 115 26 234 138 l90 85
-325 0 -325 0 90 -85z"/>
</g>
</svg>
